<svg width="124" height="122" viewBox="0 0 124 122" fill="none" xmlns="http://www.w3.org/2000/svg">
<g filter="url(#filter0_dd_1_65)">
<ellipse cx="62.0001" cy="56.7391" rx="58" ry="56.7391" fill="url(#paint0_radial_1_65)" fill-opacity="0.3"/>
<path d="M70.0996 44.841L70.1075 44.8483L70.1156 44.8554C73.5462 47.9113 76.5209 50.6195 78.662 53.4192C80.7773 56.1853 81.9996 58.9419 82.0334 62.0825C82.0736 67.4663 77.6722 71.9505 72.2951 71.9951C68.266 71.9853 64.7657 70.3433 63.1136 67.6598L60.795 68.4652L58.6883 67.7777C57.1964 70.4842 53.6717 72.1956 49.6407 72.1878L49.6336 72.1878L49.6264 72.1878C44.2383 72.2287 39.7511 67.8231 39.71 62.4434L39.71 62.439C39.6769 59.3012 40.8402 56.5546 42.9035 53.7615C44.9943 50.9311 47.9212 48.1654 51.3124 44.9663C55.5999 40.9651 58.2469 37.7682 59.8342 35.5414C60.1396 35.113 60.4057 34.7205 60.6367 34.3652C60.8722 34.7126 61.1428 35.0962 61.4522 35.5148C63.0751 37.7102 65.7684 40.8697 70.0996 44.841ZM63.2589 80.1206L58.6556 80.1243C58.6639 80.1081 58.6722 80.0918 58.6805 80.0756C59.2363 78.9839 59.6807 77.7189 60.0422 76.4227C60.3978 75.1473 60.6844 73.7998 60.9181 72.4919C61.1547 73.7932 61.4493 75.1319 61.8157 76.4006C62.1923 77.7047 62.6564 78.9764 63.2341 80.0737C63.2423 80.0893 63.2506 80.105 63.2589 80.1206ZM60.6048 31.3801C60.6048 31.3801 60.3832 31.9257 59.7488 32.9623L61.496 32.944C60.8393 31.9182 60.6048 31.3801 60.6048 31.3801Z" stroke="url(#paint1_linear_1_65)" stroke-width="3"/>
</g>
<defs>
<filter id="filter0_dd_1_65" x="9.15527e-05" y="0" width="124" height="121.478" filterUnits="userSpaceOnUse" color-interpolation-filters="sRGB">
<feFlood flood-opacity="0" result="BackgroundImageFix"/>
<feColorMatrix in="SourceAlpha" type="matrix" values="0 0 0 0 0 0 0 0 0 0 0 0 0 0 0 0 0 0 127 0" result="hardAlpha"/>
<feOffset dy="4"/>
<feGaussianBlur stdDeviation="2"/>
<feComposite in2="hardAlpha" operator="out"/>
<feColorMatrix type="matrix" values="0 0 0 0 0 0 0 0 0 0 0 0 0 0 0 0 0 0 0.25 0"/>
<feBlend mode="normal" in2="BackgroundImageFix" result="effect1_dropShadow_1_65"/>
<feColorMatrix in="SourceAlpha" type="matrix" values="0 0 0 0 0 0 0 0 0 0 0 0 0 0 0 0 0 0 127 0" result="hardAlpha"/>
<feOffset dy="4"/>
<feGaussianBlur stdDeviation="2"/>
<feComposite in2="hardAlpha" operator="out"/>
<feColorMatrix type="matrix" values="0 0 0 0 0 0 0 0 0 0 0 0 0 0 0 0 0 0 0.25 0"/>
<feBlend mode="normal" in2="effect1_dropShadow_1_65" result="effect2_dropShadow_1_65"/>
<feBlend mode="normal" in="SourceGraphic" in2="effect2_dropShadow_1_65" result="shape"/>
</filter>
<radialGradient id="paint0_radial_1_65" cx="0" cy="0" r="1" gradientUnits="userSpaceOnUse" gradientTransform="translate(62.0001 56.7391) rotate(90) scale(56.7391 58)">
<stop stop-color="#FFB520"/>
<stop offset="0.635417"/>
<stop offset="0.940625"/>
<stop offset="0.96875" stop-color="#00A2FD"/>
</radialGradient>
<linearGradient id="paint1_linear_1_65" x1="48.9247" y1="2.90975" x2="117.915" y2="26.4107" gradientUnits="userSpaceOnUse">
<stop offset="0.0001" stop-color="#FFC123"/>
<stop offset="0.9999" stop-color="#FA4800"/>
</linearGradient>
</defs>
</svg>
