<svg width="116" height="114" viewBox="0 0 116 114" fill="none" xmlns="http://www.w3.org/2000/svg">
<ellipse cx="58" cy="56.7391" rx="58" ry="56.7391" fill="url(#paint0_radial_1_42)" fill-opacity="0.3"/>
<g clip-path="url(#clip0_1_42)">
<path d="M83 47.7093C83 47.5158 82.976 47.3142 82.9282 47.1045C82.8803 46.8948 82.8245 46.7013 82.7607 46.5238C82.6969 46.3464 82.6092 46.1771 82.4975 46.0158C82.3859 45.8545 82.2583 45.7013 82.1147 45.5561C81.9712 45.4109 81.8196 45.2819 81.6601 45.169C81.5006 45.0561 81.3252 44.9593 81.1338 44.8787C80.9424 44.798 80.7509 44.7335 80.5595 44.6851C80.3681 44.6367 80.1608 44.6126 79.9375 44.6126H74.7216C76.1891 43.1609 76.9228 41.4029 76.9228 39.3384C76.9228 38.3706 76.7474 37.4835 76.3965 36.6771C76.0455 35.8706 75.4155 35.1771 74.5063 34.5964C73.5971 34.0158 72.4726 33.7255 71.1328 33.7255C70.5905 33.7255 70.0402 33.7819 69.4819 33.8948C68.9236 34.0077 68.3893 34.1771 67.8789 34.4029C67.3685 34.6287 66.866 34.8787 66.3716 35.1529C65.8771 35.4271 65.3986 35.7416 64.936 36.0964C64.4734 36.4513 64.0268 36.8142 63.5962 37.1851C63.1655 37.5561 62.7508 37.9593 62.352 38.3948C61.9533 38.8303 61.5784 39.2496 61.2275 39.6529C60.8766 40.0561 60.5337 40.4755 60.1987 40.9109C59.8637 41.3464 59.5687 41.7416 59.3134 42.0964C59.0582 42.4513 58.819 42.8222 58.5957 43.2093C57.9258 42.1771 57.2 41.1851 56.4184 40.2335C55.6369 39.2819 54.6878 38.2819 53.5713 37.2335C52.4547 36.1851 51.2265 35.3384 49.8867 34.6932C48.5468 34.048 47.223 33.7255 45.915 33.7255C44.5752 33.7255 43.4507 34.0158 42.5415 34.5964C41.6323 35.1771 41.0022 35.8706 40.6513 36.6771C40.3004 37.4835 40.125 38.3706 40.125 39.3384C40.125 41.4029 40.8746 43.1771 42.374 44.6609H37.0625C36.2011 44.6609 35.4754 44.9593 34.8852 45.5561C34.2951 46.1529 34 46.8867 34 47.7577V56.9996H37.1103V77.1771C37.1103 78.0158 37.4054 78.7416 37.9956 79.3545C38.5857 79.9674 39.3115 80.2738 40.1728 80.2738H76.875C77.7363 80.2738 78.462 79.9674 79.0522 79.3545C79.6424 78.7416 79.9375 78.0158 79.9375 77.1771V56.9996H83V47.7093ZM71.1328 36.8222C72.9511 36.8222 73.8603 37.6609 73.8603 39.3384C73.8603 40.4351 73.4935 41.3948 72.7597 42.2174C72.026 43.04 71.1089 43.6448 70.0083 44.0319C68.9077 44.419 67.7353 44.6126 66.4912 44.6126H61.3232C61.9293 43.7093 62.5753 42.8464 63.2612 42.0238C63.9471 41.2013 64.7207 40.3787 65.582 39.5561C66.4433 38.7335 67.3605 38.0722 68.3335 37.5722C69.3064 37.0722 70.2396 36.8222 71.1328 36.8222ZM45.915 36.8222C47.6377 36.8222 49.3842 37.6126 51.1548 39.1932C52.9253 40.7738 54.4964 42.5803 55.8681 44.6126H50.7002C48.7542 44.6126 47.0156 44.1287 45.4843 43.1609C43.9531 42.1932 43.1875 40.9029 43.1875 39.29C43.1875 37.7416 44.0009 36.9351 45.6279 36.8706C45.7236 36.8384 45.8193 36.8222 45.915 36.8222ZM79.9375 53.9029H60.0312V47.7093H79.9375V53.9029ZM37.0625 47.7093H56.9687V53.9029H37.0625V47.7093ZM40.1728 56.9996H56.9687V77.1771H40.1728V56.9996ZM76.875 77.1771H60.0312V56.9996H76.875V77.1771Z" fill="url(#paint1_linear_1_42)"/>
</g>
<defs>
<radialGradient id="paint0_radial_1_42" cx="0" cy="0" r="1" gradientUnits="userSpaceOnUse" gradientTransform="translate(58 56.7391) rotate(90) scale(56.7391 58)">
<stop stop-color="#FFB520"/>
<stop offset="0.635417"/>
<stop offset="0.940625"/>
<stop offset="0.96875" stop-color="#00A2FD"/>
</radialGradient>
<linearGradient id="paint1_linear_1_42" x1="34.9546" y1="9.58093" x2="112.489" y2="24.4396" gradientUnits="userSpaceOnUse">
<stop offset="0.0001" stop-color="#FFC123"/>
<stop offset="0.9999" stop-color="#FA4800"/>
</linearGradient>
<clipPath id="clip0_1_42">
<rect width="49" height="48" fill="white" transform="translate(34 33)"/>
</clipPath>
</defs>
</svg>
