<svg width="117" height="114" viewBox="0 0 117 114" fill="none" xmlns="http://www.w3.org/2000/svg">
<ellipse cx="58.2541" cy="56.7391" rx="58" ry="56.7391" fill="url(#paint0_radial_1_70)" fill-opacity="0.3"/>
<path d="M40.3791 36.5938C40.3791 35.7481 39.6935 35.0625 38.8478 35.0625V35.0625C38.0022 35.0625 37.3166 35.7481 37.3166 36.5938V74.875C37.3166 75.6872 37.6392 76.4662 38.2136 77.0405C38.7879 77.6148 39.5669 77.9375 40.3791 77.9375H78.6603C79.506 77.9375 80.1916 77.2519 80.1916 76.4062V76.4062C80.1916 75.5606 79.506 74.875 78.6603 74.875H40.3791V36.5938Z" fill="url(#paint1_linear_1_70)"/>
<path d="M80.1916 45.7812H71.0041C70.1584 45.7812 69.4728 46.4668 69.4728 47.3125V47.3125C69.4728 48.1582 70.1584 48.8438 71.0041 48.8438H74.97L63.3478 60.4659L56.7788 53.8816C56.6364 53.738 56.4671 53.6241 56.2805 53.5464C56.0939 53.4686 55.8937 53.4286 55.6916 53.4286C55.4894 53.4286 55.2893 53.4686 55.1027 53.5464C54.9161 53.6241 54.7468 53.738 54.6044 53.8816L44.52 63.9798C43.9243 64.5763 43.9246 65.5427 44.5208 66.1388V66.1388C45.1172 66.7353 46.0841 66.7353 46.6806 66.1388L55.6916 57.1278L62.2607 63.7122C62.403 63.8557 62.5724 63.9696 62.759 64.0474C62.9456 64.1251 63.1457 64.1651 63.3478 64.1651C63.55 64.1651 63.7501 64.1251 63.9367 64.0474C64.1233 63.9696 64.2927 63.8557 64.435 63.7122L77.1291 51.0028V54.9688C77.1291 55.8144 77.8147 56.5 78.6603 56.5V56.5C79.506 56.5 80.1916 55.8144 80.1916 54.9687V45.7812Z" fill="url(#paint2_linear_1_70)"/>
<defs>
<radialGradient id="paint0_radial_1_70" cx="0" cy="0" r="1" gradientUnits="userSpaceOnUse" gradientTransform="translate(58.2541 56.7391) rotate(90) scale(56.7391 58)">
<stop stop-color="#FFB520"/>
<stop offset="0.635417"/>
<stop offset="0.940625"/>
<stop offset="0.96875" stop-color="#00A2FD"/>
</radialGradient>
<linearGradient id="paint1_linear_1_70" x1="38.1519" y1="12.8234" x2="106.23" y2="25.2171" gradientUnits="userSpaceOnUse">
<stop offset="0.0001" stop-color="#FFC123"/>
<stop offset="0.9999" stop-color="#FA4800"/>
</linearGradient>
<linearGradient id="paint2_linear_1_70" x1="44.1576" y1="34.6617" x2="99.0936" y2="51.8065" gradientUnits="userSpaceOnUse">
<stop offset="0.0001" stop-color="#FFC123"/>
<stop offset="0.9999" stop-color="#FA4800"/>
</linearGradient>
</defs>
</svg>
