<svg width="116" height="114" viewBox="0 0 116 114" fill="none" xmlns="http://www.w3.org/2000/svg">
<ellipse cx="58" cy="56.7391" rx="58" ry="56.7391" fill="url(#paint0_radial_1_49)" fill-opacity="0.3"/>
<g clip-path="url(#clip0_1_49)">
<path d="M55.4156 48.9596C53.9275 49.0411 52.5295 49.6983 51.5175 50.7922C50.5054 51.8862 49.9587 53.331 49.9931 54.8209V69.7928C49.9931 73.8559 51.7819 76.3215 54.3994 76.8484C55.2116 77.0131 56.0503 76.995 56.8546 76.7954C57.6589 76.5957 58.4088 76.2195 59.0496 75.6941C59.6905 75.1686 60.2064 74.5071 60.5598 73.7575C60.9133 73.0079 61.0955 72.189 61.0931 71.3603V54.5621C61.0943 53.8276 60.9509 53.1001 60.6709 52.421C60.391 51.742 59.98 51.1247 59.4615 50.6045C58.9431 50.0842 58.3272 49.6712 57.649 49.389C56.9709 49.1068 56.2439 48.9609 55.5094 48.9596M55.4156 48.9596V50.6596H55.4662M55.4156 48.9596L55.5066 50.6221L55.5094 48.9596M55.4156 48.9596H55.5094M55.4662 50.6596C54.4348 50.7269 53.468 51.1873 52.7654 51.9467C52.0532 52.7165 51.6685 53.7332 51.6927 54.7817L51.6931 54.8013V54.8209V69.7928C51.6931 73.3871 53.2032 74.8735 54.7348 75.1818L54.7373 75.1823C55.3022 75.2969 55.8856 75.2843 56.445 75.1454C57.0045 75.0066 57.526 74.7449 57.9718 74.3794C58.4175 74.014 58.7764 73.5538 59.0222 73.0325C59.268 72.5111 59.3947 71.9415 59.3931 71.3651L59.3931 71.3603L59.3931 54.5621V54.5593C59.394 54.048 59.2941 53.5416 59.0993 53.069C58.9044 52.5963 58.6184 52.1666 58.2575 51.8045C57.8965 51.4424 57.4679 51.1549 56.9958 50.9585C56.5242 50.7622 56.0185 50.6606 55.5076 50.6596H55.5094V48.9596M55.4662 50.6596C55.4796 50.6588 55.4931 50.6579 55.5065 50.6572L55.5065 50.6596L55.4662 50.6596ZM74.1145 39.3215H74.125L74.125 71.3696L74.125 71.3782C74.1302 72.4105 73.7252 73.4026 72.9991 74.1364C72.2729 74.8701 71.2851 75.2854 70.2528 75.2909L70.249 75.2909C70.0974 75.2921 69.9459 75.2844 69.7952 75.2678C68.8314 75.1184 67.9539 74.625 67.3254 73.8784C66.6911 73.1251 66.3541 72.166 66.3776 71.1815L66.3781 71.1612V71.1409V37.8503V37.8301L66.3776 37.81C66.3543 36.8246 66.6923 35.8647 67.3279 35.1112C67.9581 34.3641 68.8376 33.8712 69.8032 33.7235C70.3425 33.664 70.8883 33.7179 71.4057 33.8818C71.931 34.0482 72.415 34.3242 72.8257 34.6916C73.2364 35.0589 73.5644 35.5093 73.7881 36.0129C74.0117 36.5165 74.1259 37.0619 74.1231 37.6129L74.1145 39.3215ZM39.2138 67.8273C39.6921 67.6369 40.2035 67.5437 40.7182 67.5531C41.7333 67.5717 42.7005 67.988 43.4117 68.7125C44.123 69.4369 44.5215 70.4116 44.5215 71.4268C44.5215 72.4421 44.123 73.4167 43.4117 74.1412C42.7005 74.8656 41.7333 75.2819 40.7182 75.3005C40.2035 75.31 39.6921 75.2168 39.2138 75.0263C38.7356 74.8359 38.3001 74.5521 37.9328 74.1914C37.5655 73.8308 37.2737 73.4006 37.0745 72.9259C36.8753 72.4512 36.7728 71.9416 36.7728 71.4268C36.7728 70.9121 36.8753 70.4024 37.0745 69.9278C37.2737 69.4531 37.5655 69.0229 37.9328 68.6622C38.3001 68.3016 38.7356 68.0177 39.2138 67.8273Z" stroke="url(#paint1_linear_1_49)" stroke-width="3.4"/>
</g>
<defs>
<radialGradient id="paint0_radial_1_49" cx="0" cy="0" r="1" gradientUnits="userSpaceOnUse" gradientTransform="translate(58 56.7391) rotate(90) scale(56.7391 58)">
<stop stop-color="#FFB520"/>
<stop offset="0.635417"/>
<stop offset="0.940625"/>
<stop offset="0.96875" stop-color="#00A2FD"/>
</radialGradient>
<linearGradient id="paint1_linear_1_49" x1="35.8667" y1="8.658" x2="100.95" y2="19.3878" gradientUnits="userSpaceOnUse">
<stop offset="0.0001" stop-color="#FFC123"/>
<stop offset="0.9999" stop-color="#FA4800"/>
</linearGradient>
<clipPath id="clip0_1_49">
<rect width="45" height="45" fill="white" transform="translate(33 32)"/>
</clipPath>
</defs>
</svg>
