<svg width="116" height="114" viewBox="0 0 116 114" fill="none" xmlns="http://www.w3.org/2000/svg">
<ellipse cx="58" cy="56.7391" rx="58" ry="56.7391" fill="url(#paint0_radial_1_56)" fill-opacity="0.3"/>
<path d="M56.1237 89.653L56.3649 89.8177L56.4313 89.5333L56.4313 89.5333L56.4313 89.5333L56.4313 89.5332L56.4314 89.5329L56.4317 89.5315L56.4331 89.5255L56.4387 89.5021C56.4437 89.4816 56.4509 89.4521 56.46 89.4159C56.4783 89.3435 56.5041 89.2451 56.5339 89.1408C56.5639 89.0361 56.5974 88.9276 56.6311 88.8342C56.6666 88.7361 56.6964 88.6716 56.7158 88.6428C56.7158 88.6427 56.7159 88.6426 56.716 88.6425L66.8923 73.7362L66.8928 73.7354C66.9157 73.7015 66.9734 73.6455 67.076 73.5862L67.0773 73.5854C67.1423 73.5472 67.2054 73.5116 67.2684 73.476C67.2805 73.4692 67.2926 73.4624 67.3047 73.4555C68.3473 73.322 69.7894 73.3286 71.2692 73.9313C72.2793 74.3444 73.2834 74.1248 73.8451 73.3074L73.8455 73.3069L96.5709 40.0147L96.5722 40.0128L96.6234 39.9358L96.6242 39.9345L96.6296 39.9264C96.6554 39.887 96.685 39.8419 96.7107 39.7932L96.729 39.7621L96.7498 39.7268C96.7644 39.7019 96.7772 39.6755 96.7873 39.6543C96.7895 39.6498 96.7916 39.6455 96.7935 39.6416C97.348 38.56 97.2277 37.2284 96.613 35.9323C95.997 34.6332 94.8754 33.3465 93.3801 32.3268L93.3801 32.3268C91.5564 31.0837 89.5642 30.4975 87.9245 30.6312L87.9244 30.6312C86.8709 30.7174 85.9516 31.1036 85.3208 31.8125L85.3188 31.8147C85.3034 31.8319 85.2817 31.8562 85.2629 31.8811C85.2624 31.8818 85.2618 31.8824 85.2613 31.8831L85.2185 31.9377C85.1941 31.9666 85.1693 32.0008 85.1504 32.0269C85.1436 32.0363 85.1376 32.0446 85.1326 32.0512L85.1325 32.0511L85.1276 32.0583L62.3326 65.4435L62.4978 65.5562L62.3326 65.4435C61.7715 66.2654 61.9366 67.2785 62.687 68.0708L62.6872 68.071C63.7901 69.2322 64.3199 70.577 64.5756 71.5897C64.5646 71.6725 64.5516 71.7589 64.5366 71.8488L64.5365 71.8493C64.5176 71.9648 64.4855 72.0417 64.4611 72.0778C64.461 72.0779 64.461 72.0781 64.4609 72.0782L54.2853 86.9834C54.2852 86.9836 54.2851 86.9837 54.285 86.9839C54.2655 87.0118 54.2165 87.0627 54.1381 87.1312C54.0633 87.1964 53.9744 87.267 53.8876 87.3331C53.8012 87.3988 53.7187 87.4587 53.6577 87.5022C53.6273 87.5239 53.6024 87.5414 53.5851 87.5534L53.5653 87.5672L53.5602 87.5707L53.559 87.5716L53.5587 87.5718L53.5587 87.5718L53.5586 87.5718L53.5586 87.5718L53.3178 87.7371L53.5591 87.9018L56.1237 89.653ZM64.1826 65.5857L86.3566 33.0884L86.3737 33.0724L86.3979 33.0496L86.4135 33.0203L86.4341 32.9816C86.4345 32.9811 86.4348 32.9806 86.4352 32.9802C86.4466 32.9648 86.4561 32.952 86.4678 32.9379C86.468 32.9377 86.4682 32.9375 86.4684 32.9372L86.5223 32.8741C86.5227 32.8737 86.523 32.8733 86.5233 32.8729C86.9924 32.3441 87.8728 32.1235 88.9717 32.2547C90.062 32.3849 91.3203 32.8581 92.4791 33.6484C93.6379 34.4386 94.5371 35.4383 95.0546 36.4085C95.5757 37.3855 95.6898 38.2902 95.3645 38.9275L95.3292 38.9922L95.3126 39.0203L95.296 39.0486L95.2544 39.1145L72.9383 71.8012C72.202 67.6183 72.7912 63.6804 74.5309 61.1299C74.7812 60.7652 74.6863 60.2663 74.323 60.0166C74.1652 59.9078 73.9832 59.8642 73.8067 59.8796L64.1826 65.5857ZM65.7942 70.132C65.4512 69.2064 64.9155 68.173 64.0747 67.2187C65.6161 67.0505 68.6588 66.455 71.4626 64.3436C70.9074 66.7257 70.8704 69.4675 71.3901 72.2722C70.2576 71.8868 69.1622 71.7714 68.2211 71.7891L65.7942 70.132Z" fill="url(#paint1_linear_1_56)" stroke="url(#paint2_linear_1_56)" stroke-width="0.4"/>
<path opacity="0.9" d="M54.9689 58.4938C53.3249 54.0277 50.0369 50.4683 45.7146 48.4699C36.7923 44.3487 26.1813 48.2592 22.0601 57.1817C17.939 66.1042 21.8495 76.7155 30.7717 80.8367C33.15 81.9349 35.6878 82.4871 38.232 82.4871C40.3101 82.4871 42.3947 82.12 44.4026 81.3794C48.8685 79.7354 52.4278 76.4473 54.4262 72.1249C56.4213 67.8025 56.6161 62.9598 54.9689 58.4938ZM47.333 77.1975L41.1465 76.2462L40.2367 71.4067L45.2581 65.9797L47.017 66.2192L50.0305 66.631L51.4606 72.7315C50.3912 74.4936 49.0026 75.994 47.333 77.1975ZM49.0983 77.2933C48.9387 77.4305 48.7759 77.5646 48.6099 77.6955C48.7727 77.5646 48.9355 77.4305 49.0983 77.2933ZM48.4471 77.8232C48.2428 77.9828 48.0321 78.136 47.8215 78.2829C48.0321 78.136 48.2428 77.9828 48.4471 77.8232ZM47.7257 78.3499C47.6874 78.3786 47.6459 78.4042 47.6076 78.4329L47.7257 78.3499ZM28.1094 70.9821L32.3838 68.5336L39.0907 71.6301L40.0005 76.4728L34.6375 79.7194C33.6511 79.4832 32.6807 79.1448 31.7518 78.717C30.8228 78.2893 29.9386 77.7689 29.115 77.172L28.1094 70.9821ZM29.4342 78.7809C29.2842 78.6851 29.1309 78.5925 28.9841 78.4936C29.1309 78.5957 29.281 78.6883 29.4342 78.7809ZM28.6202 78.2414C28.5116 78.1648 28.4031 78.0881 28.2978 78.0115C28.4031 78.0913 28.5116 78.1648 28.6202 78.2414ZM22.8007 65.8712C22.6347 63.8185 22.8773 61.7882 23.5222 59.8282L29.0926 56.9583L32.6839 60.1697L31.8092 67.512L27.5348 69.9605L22.8007 65.8712ZM38.2639 49.1531H38.2767L42.7235 53.5617L40.7347 57.8713L33.4756 59.311L29.8875 56.0995L32.3104 50.3406C34.1874 49.5617 36.2336 49.1531 38.2639 49.1531ZM50.1773 65.4722L47.0968 65.054L45.4049 64.8241L41.7945 58.3597L43.7833 54.0501L50.0209 54.5768C51.3393 56.1219 52.3608 57.9511 52.9897 59.892L50.1773 65.4722ZM52.4342 55.9208C52.447 55.9399 52.4566 55.9591 52.4693 55.9782C52.4566 55.9591 52.4438 55.9399 52.4342 55.9208ZM50.9913 53.9192C51.0105 53.9415 51.0296 53.9671 51.052 53.9894C51.0296 53.9671 51.0105 53.9447 50.9913 53.9192ZM51.4893 54.5449C51.5181 54.5832 51.5468 54.6183 51.5723 54.6566C51.5468 54.6183 51.5181 54.5832 51.4893 54.5449ZM51.9714 55.2121C52.0001 55.2536 52.0256 55.2951 52.0544 55.3334C52.0256 55.2919 52.0001 55.2504 51.9714 55.2121ZM49.4495 52.323L49.5963 53.3669L43.6843 52.8689L39.4738 48.6966L40.3676 48.1379C42.0084 48.3486 43.6428 48.8019 45.223 49.5298C46.7904 50.2544 48.2077 51.1994 49.4495 52.323ZM29.9641 50.2097L31.0207 50.3789L28.7255 55.8378L23.452 58.5544L23.1934 57.5297C24.7033 54.3374 27.1071 51.8442 29.9641 50.2097ZM21.942 68.0228L22.4336 67.1002L26.9251 70.9789L27.8796 76.8368L26.8262 76.7729C24.3171 74.4074 22.6315 71.3332 21.942 68.0228ZM30.4653 79.381C30.727 79.5183 30.9952 79.6524 31.2633 79.7769C31.5315 79.9014 31.8028 80.0163 32.0774 80.128C31.8028 80.0195 31.5315 79.9014 31.2633 79.7769C30.992 79.6492 30.727 79.5183 30.4653 79.381ZM29.7055 78.9533C29.9098 79.0746 30.1205 79.1927 30.328 79.3044C30.1205 79.1895 29.9098 79.0746 29.7055 78.9533ZM34.596 80.907C34.3726 80.8559 34.1523 80.8016 33.932 80.741C34.1523 80.7984 34.3726 80.8559 34.596 80.907ZM33.7405 80.6899C33.5171 80.626 33.2936 80.5558 33.0733 80.4856C33.2968 80.5558 33.5171 80.626 33.7405 80.6899ZM32.9042 80.4281C32.6679 80.3483 32.4317 80.2589 32.1955 80.1663C32.4285 80.2589 32.6647 80.3483 32.9042 80.4281ZM44.0004 80.2813C41.5455 81.1847 38.9694 81.4911 36.4443 81.2134L35.6974 80.4409L40.773 77.3699L46.6339 78.2733L46.2381 79.2693C45.5231 79.6588 44.7761 79.9971 44.0004 80.2813ZM49.3314 77.0858C49.4591 76.974 49.5836 76.8591 49.7049 76.741C49.5836 76.8591 49.4591 76.974 49.3314 77.0858ZM49.9954 76.4633C50.0911 76.3675 50.1869 76.2685 50.2795 76.1728C50.1869 76.2685 50.0911 76.3675 49.9954 76.4633ZM51.3201 74.9725C51.2691 75.0363 51.2212 75.1002 51.1701 75.164C51.2212 75.1002 51.2723 75.0363 51.3201 74.9725ZM50.8222 75.579C50.7519 75.662 50.6817 75.7418 50.6083 75.8248C50.6785 75.7418 50.7487 75.6588 50.8222 75.579ZM51.6968 74.484C51.716 74.4585 51.7319 74.433 51.7511 74.4074C51.7287 74.433 51.7128 74.4585 51.6968 74.484ZM53.427 71.496L52.4821 71.9557L51.1286 66.1777L53.7941 60.888L54.6145 61.5871C55.2434 64.9167 54.8444 68.3484 53.427 71.496Z" fill="url(#paint3_linear_1_56)"/>
<mask id="path-4-outside-1_1_56" maskUnits="userSpaceOnUse" x="52.9999" y="28" width="18" height="18" fill="black">
<rect fill="white" x="52.9999" y="28" width="18" height="18"/>
<path d="M69.9331 38.0128C70.2064 35.8948 69.635 33.7946 68.3291 32.1058C67.0231 30.4171 65.1352 29.335 63.0166 29.0654C58.641 28.5049 54.6238 31.6091 54.0667 35.9835C53.7934 38.1015 54.3647 40.2018 55.6707 41.8905C55.8836 42.1672 56.1107 42.4262 56.3556 42.6675C57.6012 43.9127 59.2123 44.7074 60.9867 44.9345C63.1053 45.2041 65.2062 44.6365 66.8954 43.3273C68.581 42.0218 69.6634 40.1344 69.9331 38.0128ZM68.7691 37.8638C68.5597 39.4922 67.7932 40.9574 66.5902 42.0466L66.6221 41.6244C66.6221 41.5889 66.5973 41.557 66.5582 41.5499L66.5121 41.5428C66.4766 41.5357 66.4411 41.557 66.4269 41.5925L66.3205 42.0076C66.3134 42.0289 66.3098 42.0502 66.3063 42.0714L66.2743 42.2524C66.1111 42.0466 65.962 41.8373 65.8272 41.6173L65.9762 41.1703C65.9833 41.149 65.9905 41.1277 65.994 41.1065L66.0934 40.6914C66.1005 40.6559 66.0792 40.6204 66.0437 40.6062L65.9976 40.592C65.9621 40.5814 65.923 40.5956 65.9053 40.6275L65.7349 41.0178C65.7278 41.039 65.7172 41.0568 65.7101 41.0781L65.6356 41.298C65.5043 41.0603 65.3907 40.8155 65.2878 40.5672L65.5149 40.1415C65.5256 40.1237 65.5327 40.1024 65.5433 40.0812L65.7101 39.6874C65.7207 39.6519 65.7065 39.6129 65.6746 39.5951L65.632 39.5738C65.6001 39.5561 65.5575 39.5667 65.5362 39.5951L65.3055 39.9534C65.2949 39.9712 65.2842 39.9889 65.2736 40.0102L65.1636 40.2195C65.082 39.9747 65.0145 39.7299 64.9613 39.478L65.2062 39.1587C65.2204 39.141 65.231 39.1233 65.2417 39.1055L65.4723 38.7437C65.4901 38.7117 65.483 38.6692 65.451 38.6479L65.412 38.6195C65.3836 38.5982 65.341 38.5982 65.3162 38.623L65.0287 38.9388C65.0145 38.953 65.0003 38.9707 64.9861 38.9885L64.8939 39.1091C64.8548 38.8394 64.83 38.5698 64.8229 38.2966L65.0713 38.066C65.0855 38.0518 65.1033 38.0377 65.1174 38.0199L65.4049 37.7042C65.4262 37.6758 65.4262 37.6332 65.4013 37.6048L65.3694 37.5694C65.3446 37.541 65.302 37.5374 65.2736 37.5587L64.9365 37.8212C64.9187 37.8354 64.901 37.8496 64.8868 37.8638L64.8264 37.917C64.8335 37.7255 64.8477 37.5339 64.8726 37.3423C64.8797 37.282 64.8903 37.2217 64.8974 37.1614L65.1174 37.0195C65.1352 37.0088 65.1529 36.9946 65.1707 36.9804L65.5078 36.7179C65.5362 36.6931 65.5398 36.654 65.522 36.6221L65.4972 36.5831C65.4759 36.5512 65.4368 36.5405 65.4049 36.5547L65.0252 36.7534C65.0074 36.764 64.9862 36.7747 64.9684 36.7853C65.0145 36.5689 65.0749 36.356 65.1423 36.1467L65.3978 36.0403C65.4191 36.0332 65.4368 36.0225 65.4581 36.0119L65.8343 35.8132C65.8662 35.7955 65.8769 35.7529 65.8627 35.721L65.8449 35.6784C65.8307 35.6429 65.7953 35.6252 65.7562 35.6358L65.3481 35.7671C65.3268 35.7742 65.3055 35.7813 65.2878 35.7884L65.2665 35.7955C65.3481 35.5897 65.4404 35.391 65.5397 35.1959L65.7882 35.1356C65.8095 35.1321 65.8307 35.125 65.852 35.1179L66.2566 34.983C66.2921 34.9689 66.3098 34.9334 66.3027 34.8979L66.2921 34.8518C66.285 34.8163 66.2495 34.7915 66.214 34.795L65.7917 34.8553C65.7704 34.8589 65.7491 34.8624 65.7278 34.866H65.7243C65.8308 34.685 65.9514 34.5076 66.0756 34.3374L66.3418 34.3196C66.3631 34.3196 66.3844 34.3161 66.4056 34.3125L66.8279 34.2451C66.8634 34.238 66.8883 34.2025 66.8847 34.1671L66.8812 34.1209C66.8776 34.0855 66.8492 34.0535 66.8138 34.05L66.3879 34.0429C66.3666 34.0429 66.3453 34.0429 66.324 34.0429H66.3063C66.4447 33.8762 66.5866 33.7165 66.7428 33.564L67.1012 33.5959C67.1225 33.5994 67.1438 33.5994 67.1651 33.5994H67.5909C67.6264 33.5959 67.6583 33.5675 67.6619 33.532L67.6654 33.4859C67.669 33.4504 67.6442 33.4149 67.6087 33.4078L67.1864 33.3333C67.1651 33.3298 67.1438 33.3263 67.1225 33.3263L67.0089 33.3156C67.1544 33.1843 67.3106 33.0602 67.4703 32.9396C68.5349 34.3622 68.9927 36.1041 68.7691 37.8638ZM55.2306 36.1325C55.472 34.2593 56.455 32.6593 57.8496 31.5879H57.8532C58.0164 31.783 58.169 31.9888 58.311 32.1981L58.1974 32.1803C58.1761 32.1768 58.1548 32.1732 58.1335 32.1732L57.7077 32.1413C57.6722 32.1413 57.6402 32.1661 57.6331 32.2052L57.626 32.2513C57.619 32.2868 57.6402 32.3222 57.6757 32.3364L58.0909 32.4429C58.1122 32.45 58.1335 32.4535 58.1548 32.4571L58.5097 32.5174C58.6197 32.7054 58.7191 32.897 58.8113 33.0921L58.7936 33.085C58.7723 33.0779 58.751 33.0708 58.7297 33.0673L58.3145 32.9679C58.279 32.9608 58.2435 32.9821 58.2293 33.0176L58.2151 33.0637C58.2045 33.0992 58.2187 33.1382 58.2506 33.156L58.641 33.3263C58.6623 33.3334 58.68 33.344 58.7013 33.3511L58.9533 33.4362C59.0313 33.6349 59.1023 33.8336 59.1591 34.0358H59.1556C59.1378 34.0252 59.1165 34.0181 59.0952 34.0074L58.7013 33.8407C58.6658 33.83 58.6268 33.8442 58.6091 33.8762L58.5878 33.9187C58.57 33.9507 58.5807 33.9932 58.6091 34.0145L58.9675 34.2451C58.9852 34.2558 59.003 34.2664 59.0243 34.2771L59.2514 34.3977C59.3011 34.6105 59.3366 34.8305 59.3649 35.0469L59.3472 35.0327C59.3294 35.0185 59.3117 35.0079 59.294 34.9937L58.932 34.7631C58.9 34.7454 58.8575 34.7524 58.8362 34.7844L58.8078 34.8234C58.7865 34.8518 58.7865 34.8944 58.8113 34.9192L59.1272 35.2066C59.1414 35.2207 59.1591 35.2349 59.1768 35.2491L59.3969 35.4194C59.4111 35.6394 59.4146 35.8593 59.404 36.0828C59.3898 36.0687 59.3756 36.0509 59.3578 36.0367L59.042 35.7494C59.0136 35.7281 58.971 35.7281 58.9426 35.7529L58.9071 35.7848C58.8788 35.8097 58.8752 35.8522 58.8965 35.8806L59.1591 36.2177C59.1733 36.2354 59.1875 36.2496 59.2017 36.2673L59.3791 36.4589C59.372 36.5192 59.3649 36.5795 59.3578 36.6398C59.333 36.8314 59.301 37.023 59.2585 37.211L59.2159 37.1436C59.2052 37.1259 59.191 37.1081 59.1768 37.0904L58.9142 36.7534C58.8894 36.725 58.8468 36.7214 58.8184 36.7392L58.7794 36.764C58.7475 36.7853 58.7368 36.8243 58.751 36.8563L58.9497 37.2359C58.9604 37.2536 58.971 37.2749 58.9817 37.2926L59.1662 37.5764C59.0917 37.839 58.9994 38.098 58.893 38.3463L58.8362 38.2079C58.8291 38.1867 58.8184 38.1689 58.8078 38.1476L58.6091 37.7716C58.5913 37.7396 58.5487 37.729 58.5168 37.7432L58.4742 37.7609C58.4387 37.7751 58.421 37.8142 58.4316 37.8496L58.5629 38.2576C58.57 38.2789 58.5771 38.3002 58.5842 38.3179L58.7404 38.6869C58.6268 38.9175 58.499 39.1375 58.3571 39.3539L58.3038 39.1268C58.3003 39.1055 58.2932 39.0842 58.2861 39.063L58.1513 38.6585C58.1371 38.623 58.1016 38.6053 58.0661 38.6124L58.02 38.623C57.9845 38.6301 57.9596 38.6656 57.9632 38.7011L58.0235 39.1233C58.0271 39.1446 58.0306 39.1658 58.0342 39.1871L58.1442 39.6554C57.9845 39.8718 57.8106 40.0776 57.626 40.2763L57.6083 40.0457C57.6083 40.0244 57.6048 40.0031 57.6012 39.9818L57.5338 39.5596C57.5267 39.5242 57.4912 39.4993 57.4557 39.5029L57.4096 39.5064C57.3741 39.51 57.3421 39.5383 57.3386 39.5738L57.3315 39.9996C57.3315 40.0208 57.3315 40.0421 57.3315 40.0634L57.3634 40.5353C57.1754 40.7126 56.9802 40.8794 56.7708 41.0355L56.7885 40.851C56.7921 40.8297 56.7921 40.8084 56.7921 40.7872V40.3614C56.7885 40.3259 56.7602 40.294 56.7247 40.2905L56.6785 40.2869C56.643 40.2834 56.6076 40.3082 56.6005 40.3437L56.5259 40.7659C56.5224 40.7872 56.5188 40.8084 56.5188 40.8297L56.5011 41.0355C55.4578 39.6164 55.0035 37.8816 55.2306 36.1325ZM61.1322 43.7673C59.4643 43.5544 57.9667 42.7526 56.8702 41.4967C56.895 41.479 56.9198 41.4648 56.9447 41.447C56.9908 41.4116 57.0405 41.3761 57.0866 41.3406L57.3776 41.3654C57.3989 41.369 57.4202 41.369 57.4415 41.369H57.8674C57.9028 41.3654 57.9348 41.3371 57.9383 41.3016L57.9419 41.2555C57.9454 41.22 57.9206 41.1845 57.8851 41.1774L57.4628 41.1029C57.4415 41.0994 57.4202 41.0958 57.3989 41.0958H57.3918C57.6048 40.9149 57.8035 40.7233 57.9916 40.5211L58.2009 40.5069C58.2222 40.5069 58.2435 40.5033 58.2648 40.4998L58.6871 40.4324C58.7226 40.4253 58.7475 40.3898 58.7439 40.3543L58.7404 40.3082C58.7368 40.2727 58.7084 40.2408 58.6729 40.2373L58.2471 40.2302C58.421 40.0208 58.5807 39.8044 58.7297 39.5774L58.9391 39.5277C58.9604 39.5242 58.9817 39.5171 59.003 39.51L59.4075 39.3752C59.443 39.361 59.4608 39.3255 59.4537 39.29L59.443 39.2439C59.4359 39.2084 59.4004 39.1836 59.3649 39.1871L58.9426 39.2474C58.9391 39.2474 58.9355 39.2474 58.9355 39.2474C59.0668 39.0204 59.1839 38.7827 59.2904 38.5414L59.5317 38.4386C59.553 38.4315 59.5708 38.4208 59.592 38.4102L59.9682 38.2115C60.0002 38.1938 60.0108 38.1512 59.9966 38.1193L59.9789 38.0767C59.9647 38.0412 59.9292 38.0235 59.8902 38.0341L59.482 38.1654C59.4643 38.1725 59.4466 38.1796 59.4288 38.1867C59.5104 37.9596 59.5814 37.729 59.6417 37.4913L59.9363 37.3033C59.954 37.2926 59.9718 37.2784 59.9895 37.2642L60.3266 37.0017C60.355 36.9769 60.3586 36.9343 60.3408 36.9059L60.316 36.8669C60.2947 36.835 60.2557 36.8243 60.2237 36.8385L59.844 37.0372C59.8263 37.0478 59.805 37.0585 59.7872 37.0691L59.7269 37.1082C59.7517 36.9733 59.773 36.8385 59.7908 36.7037C59.8014 36.6221 59.8085 36.537 59.8192 36.4554L60.1421 36.1573C60.1563 36.1432 60.174 36.129 60.1882 36.1112L60.4757 35.7955C60.497 35.7671 60.497 35.7245 60.4722 35.6961L60.4402 35.6607C60.4154 35.6323 60.3728 35.6287 60.3444 35.65L60.0073 35.9126C59.9895 35.9267 59.9718 35.9409 59.9576 35.9551L59.8476 36.0545C59.8547 35.8416 59.8511 35.6323 59.8405 35.4194L60.1386 35.0327C60.1528 35.015 60.1634 34.9972 60.174 34.9795L60.4047 34.6176C60.4225 34.5857 60.4154 34.5431 60.3834 34.5218L60.3444 34.4935C60.316 34.4722 60.2734 34.4722 60.2486 34.497L59.9611 34.8128C59.9469 34.8305 59.9327 34.8447 59.9185 34.8624L59.805 35.0114C59.7801 34.8021 59.7446 34.5928 59.7021 34.387L59.9327 33.9542C59.9434 33.9365 59.9505 33.9152 59.9611 33.8939L60.1279 33.5001C60.1386 33.4646 60.1244 33.4256 60.0924 33.4078L60.0498 33.3866C60.0179 33.3688 59.9753 33.3795 59.954 33.4078L59.7233 33.7662C59.7127 33.7839 59.7021 33.8017 59.6914 33.8229L59.6063 33.9826C59.553 33.7981 59.4962 33.6136 59.4288 33.4327L59.5956 32.9396C59.6027 32.9183 59.6098 32.897 59.6133 32.8757L59.7127 32.4606C59.7198 32.4251 59.6985 32.3896 59.663 32.3755L59.6169 32.3613C59.5814 32.3506 59.5424 32.3648 59.5246 32.3968L59.3543 32.787C59.3472 32.8083 59.3365 32.826 59.3294 32.8473L59.2656 33.0353C59.1591 32.7941 59.0385 32.5564 58.9001 32.3258L58.9604 31.9746C58.9639 31.9533 58.9675 31.932 58.9675 31.9107L58.9994 31.485C58.9994 31.4495 58.9746 31.4176 58.9355 31.4105L58.8894 31.4034C58.8539 31.3963 58.8184 31.4176 58.8042 31.4531L58.6978 31.8681C58.6907 31.8894 58.6871 31.9107 58.6836 31.932L58.6765 31.9746C58.5416 31.7723 58.3961 31.5737 58.24 31.3821C58.2329 31.3714 58.2222 31.3644 58.2151 31.3537V31.336C59.5388 30.4526 61.1712 30.0198 62.8711 30.2362C64.3864 30.4313 65.7598 31.1089 66.8208 32.1697C66.9592 32.3081 67.0905 32.4571 67.2183 32.6096C67.0515 32.7373 66.8883 32.8686 66.7321 33.007L66.7357 32.9644C66.7392 32.9431 66.7392 32.9218 66.7392 32.9005V32.4748C66.7357 32.4393 66.7073 32.4074 66.6718 32.4038L66.6257 32.4003C66.5902 32.3967 66.5547 32.4216 66.5476 32.4571L66.4731 32.8792C66.4695 32.9005 66.466 32.9218 66.466 32.9431L66.434 33.2979C66.246 33.4894 66.0685 33.6881 65.9017 33.8939L65.8875 33.6988C65.8875 33.6775 65.884 33.6562 65.8804 33.6349L65.813 33.2127C65.8059 33.1773 65.7704 33.1524 65.7349 33.156L65.6888 33.1595C65.6533 33.1631 65.6214 33.1914 65.6178 33.2269L65.6107 33.6526C65.6107 33.6739 65.6107 33.6952 65.6107 33.7165L65.6462 34.2345C65.5362 34.3941 65.4333 34.5538 65.3339 34.7205L65.2913 34.5467C65.2878 34.5254 65.2807 34.5041 65.2736 34.4828L65.1387 34.0784C65.1245 34.0429 65.0891 34.0252 65.0536 34.0323L65.0074 34.0429C64.972 34.05 64.9471 34.0855 64.9507 34.1209L65.011 34.5431C65.0145 34.5644 65.0181 34.5857 65.0216 34.607L65.1352 35.0824C65.0394 35.2704 64.9542 35.4655 64.8761 35.6607L64.8052 35.4904C64.7981 35.4691 64.7874 35.4514 64.7768 35.4301L64.5781 35.054C64.5603 35.0221 64.5177 35.0114 64.4858 35.0256L64.4432 35.0434C64.4077 35.0576 64.39 35.0966 64.4006 35.1321L64.5319 35.54C64.539 35.5613 64.5461 35.5826 64.5532 35.6004L64.7413 36.0509C64.6774 36.2531 64.6206 36.4554 64.5745 36.6611L64.4929 36.537C64.4822 36.5192 64.468 36.5015 64.4538 36.4837L64.1912 36.1467C64.1664 36.1183 64.1273 36.1148 64.0954 36.1325L64.0564 36.1573C64.0244 36.1786 64.0138 36.2177 64.028 36.2496L64.2267 36.6292C64.2374 36.6469 64.248 36.6682 64.2587 36.686L64.4964 37.0549C64.4822 37.1365 64.4716 37.2181 64.4609 37.3033C64.4432 37.4381 64.429 37.5764 64.4219 37.7113L64.3722 37.658C64.358 37.6439 64.3438 37.6261 64.3261 37.6119L64.0102 37.3246C63.9819 37.3033 63.9393 37.3033 63.9109 37.3281L63.8754 37.36C63.847 37.3849 63.8435 37.4274 63.8648 37.4558L64.1274 37.7929C64.1416 37.8106 64.1557 37.8283 64.1699 37.8425L64.4077 38.1015C64.4042 38.3463 64.4148 38.5876 64.4361 38.8288C64.4219 38.8182 64.4042 38.8075 64.39 38.7969L64.028 38.5663C63.996 38.5485 63.9535 38.5556 63.9322 38.5876L63.9038 38.6266C63.8825 38.655 63.8825 38.6975 63.9073 38.7224L64.2232 39.0097C64.2374 39.0239 64.2551 39.0381 64.2728 39.0523L64.4822 39.212C64.5213 39.4709 64.578 39.7299 64.6455 39.9854C64.6419 39.9854 64.6384 39.9818 64.6384 39.9818L64.2445 39.8151C64.209 39.8044 64.1699 39.8186 64.1522 39.8506L64.1309 39.8931C64.1132 39.9251 64.1238 39.9676 64.1522 39.9889L64.5106 40.2195C64.5284 40.2302 64.5461 40.2408 64.5674 40.2514L64.759 40.3508C64.8442 40.6062 64.9436 40.8581 65.0607 41.1029L64.649 41.0036C64.6135 40.9965 64.578 41.0178 64.5638 41.0532L64.5497 41.0994C64.539 41.1348 64.5532 41.1739 64.5851 41.1916L64.9755 41.3619C64.9968 41.369 65.0145 41.3796 65.0358 41.3867L65.2346 41.4541C65.3659 41.6954 65.5078 41.9331 65.6675 42.1601H65.6604C65.6391 42.1566 65.6178 42.153 65.5965 42.153L65.1707 42.1211C65.1352 42.1211 65.1033 42.1459 65.0962 42.185L65.0891 42.2311C65.082 42.2666 65.1033 42.302 65.1387 42.3162L65.554 42.4227C65.5753 42.4298 65.5965 42.4333 65.6178 42.4369L65.9053 42.4865C65.9266 42.5149 65.9479 42.5433 65.9727 42.5681C64.5603 43.5544 62.8534 43.9872 61.1322 43.7673Z"/>
</mask>
<path d="M69.9331 38.0128C70.2064 35.8948 69.635 33.7946 68.3291 32.1058C67.0231 30.4171 65.1352 29.335 63.0166 29.0654C58.641 28.5049 54.6238 31.6091 54.0667 35.9835C53.7934 38.1015 54.3647 40.2018 55.6707 41.8905C55.8836 42.1672 56.1107 42.4262 56.3556 42.6675C57.6012 43.9127 59.2123 44.7074 60.9867 44.9345C63.1053 45.2041 65.2062 44.6365 66.8954 43.3273C68.581 42.0218 69.6634 40.1344 69.9331 38.0128ZM68.7691 37.8638C68.5597 39.4922 67.7932 40.9574 66.5902 42.0466L66.6221 41.6244C66.6221 41.5889 66.5973 41.557 66.5582 41.5499L66.5121 41.5428C66.4766 41.5357 66.4411 41.557 66.4269 41.5925L66.3205 42.0076C66.3134 42.0289 66.3098 42.0502 66.3063 42.0714L66.2743 42.2524C66.1111 42.0466 65.962 41.8373 65.8272 41.6173L65.9762 41.1703C65.9833 41.149 65.9905 41.1277 65.994 41.1065L66.0934 40.6914C66.1005 40.6559 66.0792 40.6204 66.0437 40.6062L65.9976 40.592C65.9621 40.5814 65.923 40.5956 65.9053 40.6275L65.7349 41.0178C65.7278 41.039 65.7172 41.0568 65.7101 41.0781L65.6356 41.298C65.5043 41.0603 65.3907 40.8155 65.2878 40.5672L65.5149 40.1415C65.5256 40.1237 65.5327 40.1024 65.5433 40.0812L65.7101 39.6874C65.7207 39.6519 65.7065 39.6129 65.6746 39.5951L65.632 39.5738C65.6001 39.5561 65.5575 39.5667 65.5362 39.5951L65.3055 39.9534C65.2949 39.9712 65.2842 39.9889 65.2736 40.0102L65.1636 40.2195C65.082 39.9747 65.0145 39.7299 64.9613 39.478L65.2062 39.1587C65.2204 39.141 65.231 39.1233 65.2417 39.1055L65.4723 38.7437C65.4901 38.7117 65.483 38.6692 65.451 38.6479L65.412 38.6195C65.3836 38.5982 65.341 38.5982 65.3162 38.623L65.0287 38.9388C65.0145 38.953 65.0003 38.9707 64.9861 38.9885L64.8939 39.1091C64.8548 38.8394 64.83 38.5698 64.8229 38.2966L65.0713 38.066C65.0855 38.0518 65.1033 38.0377 65.1174 38.0199L65.4049 37.7042C65.4262 37.6758 65.4262 37.6332 65.4013 37.6048L65.3694 37.5694C65.3446 37.541 65.302 37.5374 65.2736 37.5587L64.9365 37.8212C64.9187 37.8354 64.901 37.8496 64.8868 37.8638L64.8264 37.917C64.8335 37.7255 64.8477 37.5339 64.8726 37.3423C64.8797 37.282 64.8903 37.2217 64.8974 37.1614L65.1174 37.0195C65.1352 37.0088 65.1529 36.9946 65.1707 36.9804L65.5078 36.7179C65.5362 36.6931 65.5398 36.654 65.522 36.6221L65.4972 36.5831C65.4759 36.5512 65.4368 36.5405 65.4049 36.5547L65.0252 36.7534C65.0074 36.764 64.9862 36.7747 64.9684 36.7853C65.0145 36.5689 65.0749 36.356 65.1423 36.1467L65.3978 36.0403C65.4191 36.0332 65.4368 36.0225 65.4581 36.0119L65.8343 35.8132C65.8662 35.7955 65.8769 35.7529 65.8627 35.721L65.8449 35.6784C65.8307 35.6429 65.7953 35.6252 65.7562 35.6358L65.3481 35.7671C65.3268 35.7742 65.3055 35.7813 65.2878 35.7884L65.2665 35.7955C65.3481 35.5897 65.4404 35.391 65.5397 35.1959L65.7882 35.1356C65.8095 35.1321 65.8307 35.125 65.852 35.1179L66.2566 34.983C66.2921 34.9689 66.3098 34.9334 66.3027 34.8979L66.2921 34.8518C66.285 34.8163 66.2495 34.7915 66.214 34.795L65.7917 34.8553C65.7704 34.8589 65.7491 34.8624 65.7278 34.866H65.7243C65.8308 34.685 65.9514 34.5076 66.0756 34.3374L66.3418 34.3196C66.3631 34.3196 66.3844 34.3161 66.4056 34.3125L66.8279 34.2451C66.8634 34.238 66.8883 34.2025 66.8847 34.1671L66.8812 34.1209C66.8776 34.0855 66.8492 34.0535 66.8138 34.05L66.3879 34.0429C66.3666 34.0429 66.3453 34.0429 66.324 34.0429H66.3063C66.4447 33.8762 66.5866 33.7165 66.7428 33.564L67.1012 33.5959C67.1225 33.5994 67.1438 33.5994 67.1651 33.5994H67.5909C67.6264 33.5959 67.6583 33.5675 67.6619 33.532L67.6654 33.4859C67.669 33.4504 67.6442 33.4149 67.6087 33.4078L67.1864 33.3333C67.1651 33.3298 67.1438 33.3263 67.1225 33.3263L67.0089 33.3156C67.1544 33.1843 67.3106 33.0602 67.4703 32.9396C68.5349 34.3622 68.9927 36.1041 68.7691 37.8638ZM55.2306 36.1325C55.472 34.2593 56.455 32.6593 57.8496 31.5879H57.8532C58.0164 31.783 58.169 31.9888 58.311 32.1981L58.1974 32.1803C58.1761 32.1768 58.1548 32.1732 58.1335 32.1732L57.7077 32.1413C57.6722 32.1413 57.6402 32.1661 57.6331 32.2052L57.626 32.2513C57.619 32.2868 57.6402 32.3222 57.6757 32.3364L58.0909 32.4429C58.1122 32.45 58.1335 32.4535 58.1548 32.4571L58.5097 32.5174C58.6197 32.7054 58.7191 32.897 58.8113 33.0921L58.7936 33.085C58.7723 33.0779 58.751 33.0708 58.7297 33.0673L58.3145 32.9679C58.279 32.9608 58.2435 32.9821 58.2293 33.0176L58.2151 33.0637C58.2045 33.0992 58.2187 33.1382 58.2506 33.156L58.641 33.3263C58.6623 33.3334 58.68 33.344 58.7013 33.3511L58.9533 33.4362C59.0313 33.6349 59.1023 33.8336 59.1591 34.0358H59.1556C59.1378 34.0252 59.1165 34.0181 59.0952 34.0074L58.7013 33.8407C58.6658 33.83 58.6268 33.8442 58.6091 33.8762L58.5878 33.9187C58.57 33.9507 58.5807 33.9932 58.6091 34.0145L58.9675 34.2451C58.9852 34.2558 59.003 34.2664 59.0243 34.2771L59.2514 34.3977C59.3011 34.6105 59.3366 34.8305 59.3649 35.0469L59.3472 35.0327C59.3294 35.0185 59.3117 35.0079 59.294 34.9937L58.932 34.7631C58.9 34.7454 58.8575 34.7524 58.8362 34.7844L58.8078 34.8234C58.7865 34.8518 58.7865 34.8944 58.8113 34.9192L59.1272 35.2066C59.1414 35.2207 59.1591 35.2349 59.1768 35.2491L59.3969 35.4194C59.4111 35.6394 59.4146 35.8593 59.404 36.0828C59.3898 36.0687 59.3756 36.0509 59.3578 36.0367L59.042 35.7494C59.0136 35.7281 58.971 35.7281 58.9426 35.7529L58.9071 35.7848C58.8788 35.8097 58.8752 35.8522 58.8965 35.8806L59.1591 36.2177C59.1733 36.2354 59.1875 36.2496 59.2017 36.2673L59.3791 36.4589C59.372 36.5192 59.3649 36.5795 59.3578 36.6398C59.333 36.8314 59.301 37.023 59.2585 37.211L59.2159 37.1436C59.2052 37.1259 59.191 37.1081 59.1768 37.0904L58.9142 36.7534C58.8894 36.725 58.8468 36.7214 58.8184 36.7392L58.7794 36.764C58.7475 36.7853 58.7368 36.8243 58.751 36.8563L58.9497 37.2359C58.9604 37.2536 58.971 37.2749 58.9817 37.2926L59.1662 37.5764C59.0917 37.839 58.9994 38.098 58.893 38.3463L58.8362 38.2079C58.8291 38.1867 58.8184 38.1689 58.8078 38.1476L58.6091 37.7716C58.5913 37.7396 58.5487 37.729 58.5168 37.7432L58.4742 37.7609C58.4387 37.7751 58.421 37.8142 58.4316 37.8496L58.5629 38.2576C58.57 38.2789 58.5771 38.3002 58.5842 38.3179L58.7404 38.6869C58.6268 38.9175 58.499 39.1375 58.3571 39.3539L58.3038 39.1268C58.3003 39.1055 58.2932 39.0842 58.2861 39.063L58.1513 38.6585C58.1371 38.623 58.1016 38.6053 58.0661 38.6124L58.02 38.623C57.9845 38.6301 57.9596 38.6656 57.9632 38.7011L58.0235 39.1233C58.0271 39.1446 58.0306 39.1658 58.0342 39.1871L58.1442 39.6554C57.9845 39.8718 57.8106 40.0776 57.626 40.2763L57.6083 40.0457C57.6083 40.0244 57.6048 40.0031 57.6012 39.9818L57.5338 39.5596C57.5267 39.5242 57.4912 39.4993 57.4557 39.5029L57.4096 39.5064C57.3741 39.51 57.3421 39.5383 57.3386 39.5738L57.3315 39.9996C57.3315 40.0208 57.3315 40.0421 57.3315 40.0634L57.3634 40.5353C57.1754 40.7126 56.9802 40.8794 56.7708 41.0355L56.7885 40.851C56.7921 40.8297 56.7921 40.8084 56.7921 40.7872V40.3614C56.7885 40.3259 56.7602 40.294 56.7247 40.2905L56.6785 40.2869C56.643 40.2834 56.6076 40.3082 56.6005 40.3437L56.5259 40.7659C56.5224 40.7872 56.5188 40.8084 56.5188 40.8297L56.5011 41.0355C55.4578 39.6164 55.0035 37.8816 55.2306 36.1325ZM61.1322 43.7673C59.4643 43.5544 57.9667 42.7526 56.8702 41.4967C56.895 41.479 56.9198 41.4648 56.9447 41.447C56.9908 41.4116 57.0405 41.3761 57.0866 41.3406L57.3776 41.3654C57.3989 41.369 57.4202 41.369 57.4415 41.369H57.8674C57.9028 41.3654 57.9348 41.3371 57.9383 41.3016L57.9419 41.2555C57.9454 41.22 57.9206 41.1845 57.8851 41.1774L57.4628 41.1029C57.4415 41.0994 57.4202 41.0958 57.3989 41.0958H57.3918C57.6048 40.9149 57.8035 40.7233 57.9916 40.5211L58.2009 40.5069C58.2222 40.5069 58.2435 40.5033 58.2648 40.4998L58.6871 40.4324C58.7226 40.4253 58.7475 40.3898 58.7439 40.3543L58.7404 40.3082C58.7368 40.2727 58.7084 40.2408 58.6729 40.2373L58.2471 40.2302C58.421 40.0208 58.5807 39.8044 58.7297 39.5774L58.9391 39.5277C58.9604 39.5242 58.9817 39.5171 59.003 39.51L59.4075 39.3752C59.443 39.361 59.4608 39.3255 59.4537 39.29L59.443 39.2439C59.4359 39.2084 59.4004 39.1836 59.3649 39.1871L58.9426 39.2474C58.9391 39.2474 58.9355 39.2474 58.9355 39.2474C59.0668 39.0204 59.1839 38.7827 59.2904 38.5414L59.5317 38.4386C59.553 38.4315 59.5708 38.4208 59.592 38.4102L59.9682 38.2115C60.0002 38.1938 60.0108 38.1512 59.9966 38.1193L59.9789 38.0767C59.9647 38.0412 59.9292 38.0235 59.8902 38.0341L59.482 38.1654C59.4643 38.1725 59.4466 38.1796 59.4288 38.1867C59.5104 37.9596 59.5814 37.729 59.6417 37.4913L59.9363 37.3033C59.954 37.2926 59.9718 37.2784 59.9895 37.2642L60.3266 37.0017C60.355 36.9769 60.3586 36.9343 60.3408 36.9059L60.316 36.8669C60.2947 36.835 60.2557 36.8243 60.2237 36.8385L59.844 37.0372C59.8263 37.0478 59.805 37.0585 59.7872 37.0691L59.7269 37.1082C59.7517 36.9733 59.773 36.8385 59.7908 36.7037C59.8014 36.6221 59.8085 36.537 59.8192 36.4554L60.1421 36.1573C60.1563 36.1432 60.174 36.129 60.1882 36.1112L60.4757 35.7955C60.497 35.7671 60.497 35.7245 60.4722 35.6961L60.4402 35.6607C60.4154 35.6323 60.3728 35.6287 60.3444 35.65L60.0073 35.9126C59.9895 35.9267 59.9718 35.9409 59.9576 35.9551L59.8476 36.0545C59.8547 35.8416 59.8511 35.6323 59.8405 35.4194L60.1386 35.0327C60.1528 35.015 60.1634 34.9972 60.174 34.9795L60.4047 34.6176C60.4225 34.5857 60.4154 34.5431 60.3834 34.5218L60.3444 34.4935C60.316 34.4722 60.2734 34.4722 60.2486 34.497L59.9611 34.8128C59.9469 34.8305 59.9327 34.8447 59.9185 34.8624L59.805 35.0114C59.7801 34.8021 59.7446 34.5928 59.7021 34.387L59.9327 33.9542C59.9434 33.9365 59.9505 33.9152 59.9611 33.8939L60.1279 33.5001C60.1386 33.4646 60.1244 33.4256 60.0924 33.4078L60.0498 33.3866C60.0179 33.3688 59.9753 33.3795 59.954 33.4078L59.7233 33.7662C59.7127 33.7839 59.7021 33.8017 59.6914 33.8229L59.6063 33.9826C59.553 33.7981 59.4962 33.6136 59.4288 33.4327L59.5956 32.9396C59.6027 32.9183 59.6098 32.897 59.6133 32.8757L59.7127 32.4606C59.7198 32.4251 59.6985 32.3896 59.663 32.3755L59.6169 32.3613C59.5814 32.3506 59.5424 32.3648 59.5246 32.3968L59.3543 32.787C59.3472 32.8083 59.3365 32.826 59.3294 32.8473L59.2656 33.0353C59.1591 32.7941 59.0385 32.5564 58.9001 32.3258L58.9604 31.9746C58.9639 31.9533 58.9675 31.932 58.9675 31.9107L58.9994 31.485C58.9994 31.4495 58.9746 31.4176 58.9355 31.4105L58.8894 31.4034C58.8539 31.3963 58.8184 31.4176 58.8042 31.4531L58.6978 31.8681C58.6907 31.8894 58.6871 31.9107 58.6836 31.932L58.6765 31.9746C58.5416 31.7723 58.3961 31.5737 58.24 31.3821C58.2329 31.3714 58.2222 31.3644 58.2151 31.3537V31.336C59.5388 30.4526 61.1712 30.0198 62.8711 30.2362C64.3864 30.4313 65.7598 31.1089 66.8208 32.1697C66.9592 32.3081 67.0905 32.4571 67.2183 32.6096C67.0515 32.7373 66.8883 32.8686 66.7321 33.007L66.7357 32.9644C66.7392 32.9431 66.7392 32.9218 66.7392 32.9005V32.4748C66.7357 32.4393 66.7073 32.4074 66.6718 32.4038L66.6257 32.4003C66.5902 32.3967 66.5547 32.4216 66.5476 32.4571L66.4731 32.8792C66.4695 32.9005 66.466 32.9218 66.466 32.9431L66.434 33.2979C66.246 33.4894 66.0685 33.6881 65.9017 33.8939L65.8875 33.6988C65.8875 33.6775 65.884 33.6562 65.8804 33.6349L65.813 33.2127C65.8059 33.1773 65.7704 33.1524 65.7349 33.156L65.6888 33.1595C65.6533 33.1631 65.6214 33.1914 65.6178 33.2269L65.6107 33.6526C65.6107 33.6739 65.6107 33.6952 65.6107 33.7165L65.6462 34.2345C65.5362 34.3941 65.4333 34.5538 65.3339 34.7205L65.2913 34.5467C65.2878 34.5254 65.2807 34.5041 65.2736 34.4828L65.1387 34.0784C65.1245 34.0429 65.0891 34.0252 65.0536 34.0323L65.0074 34.0429C64.972 34.05 64.9471 34.0855 64.9507 34.1209L65.011 34.5431C65.0145 34.5644 65.0181 34.5857 65.0216 34.607L65.1352 35.0824C65.0394 35.2704 64.9542 35.4655 64.8761 35.6607L64.8052 35.4904C64.7981 35.4691 64.7874 35.4514 64.7768 35.4301L64.5781 35.054C64.5603 35.0221 64.5177 35.0114 64.4858 35.0256L64.4432 35.0434C64.4077 35.0576 64.39 35.0966 64.4006 35.1321L64.5319 35.54C64.539 35.5613 64.5461 35.5826 64.5532 35.6004L64.7413 36.0509C64.6774 36.2531 64.6206 36.4554 64.5745 36.6611L64.4929 36.537C64.4822 36.5192 64.468 36.5015 64.4538 36.4837L64.1912 36.1467C64.1664 36.1183 64.1273 36.1148 64.0954 36.1325L64.0564 36.1573C64.0244 36.1786 64.0138 36.2177 64.028 36.2496L64.2267 36.6292C64.2374 36.6469 64.248 36.6682 64.2587 36.686L64.4964 37.0549C64.4822 37.1365 64.4716 37.2181 64.4609 37.3033C64.4432 37.4381 64.429 37.5764 64.4219 37.7113L64.3722 37.658C64.358 37.6439 64.3438 37.6261 64.3261 37.6119L64.0102 37.3246C63.9819 37.3033 63.9393 37.3033 63.9109 37.3281L63.8754 37.36C63.847 37.3849 63.8435 37.4274 63.8648 37.4558L64.1274 37.7929C64.1416 37.8106 64.1557 37.8283 64.1699 37.8425L64.4077 38.1015C64.4042 38.3463 64.4148 38.5876 64.4361 38.8288C64.4219 38.8182 64.4042 38.8075 64.39 38.7969L64.028 38.5663C63.996 38.5485 63.9535 38.5556 63.9322 38.5876L63.9038 38.6266C63.8825 38.655 63.8825 38.6975 63.9073 38.7224L64.2232 39.0097C64.2374 39.0239 64.2551 39.0381 64.2728 39.0523L64.4822 39.212C64.5213 39.4709 64.578 39.7299 64.6455 39.9854C64.6419 39.9854 64.6384 39.9818 64.6384 39.9818L64.2445 39.8151C64.209 39.8044 64.1699 39.8186 64.1522 39.8506L64.1309 39.8931C64.1132 39.9251 64.1238 39.9676 64.1522 39.9889L64.5106 40.2195C64.5284 40.2302 64.5461 40.2408 64.5674 40.2514L64.759 40.3508C64.8442 40.6062 64.9436 40.8581 65.0607 41.1029L64.649 41.0036C64.6135 40.9965 64.578 41.0178 64.5638 41.0532L64.5497 41.0994C64.539 41.1348 64.5532 41.1739 64.5851 41.1916L64.9755 41.3619C64.9968 41.369 65.0145 41.3796 65.0358 41.3867L65.2346 41.4541C65.3659 41.6954 65.5078 41.9331 65.6675 42.1601H65.6604C65.6391 42.1566 65.6178 42.153 65.5965 42.153L65.1707 42.1211C65.1352 42.1211 65.1033 42.1459 65.0962 42.185L65.0891 42.2311C65.082 42.2666 65.1033 42.302 65.1387 42.3162L65.554 42.4227C65.5753 42.4298 65.5965 42.4333 65.6178 42.4369L65.9053 42.4865C65.9266 42.5149 65.9479 42.5433 65.9727 42.5681C64.5603 43.5544 62.8534 43.9872 61.1322 43.7673Z" fill="url(#paint4_linear_1_56)"/>
<path d="M69.9331 38.0128C70.2064 35.8948 69.635 33.7946 68.3291 32.1058C67.0231 30.4171 65.1352 29.335 63.0166 29.0654C58.641 28.5049 54.6238 31.6091 54.0667 35.9835C53.7934 38.1015 54.3647 40.2018 55.6707 41.8905C55.8836 42.1672 56.1107 42.4262 56.3556 42.6675C57.6012 43.9127 59.2123 44.7074 60.9867 44.9345C63.1053 45.2041 65.2062 44.6365 66.8954 43.3273C68.581 42.0218 69.6634 40.1344 69.9331 38.0128ZM68.7691 37.8638C68.5597 39.4922 67.7932 40.9574 66.5902 42.0466L66.6221 41.6244C66.6221 41.5889 66.5973 41.557 66.5582 41.5499L66.5121 41.5428C66.4766 41.5357 66.4411 41.557 66.4269 41.5925L66.3205 42.0076C66.3134 42.0289 66.3098 42.0502 66.3063 42.0714L66.2743 42.2524C66.1111 42.0466 65.962 41.8373 65.8272 41.6173L65.9762 41.1703C65.9833 41.149 65.9905 41.1277 65.994 41.1065L66.0934 40.6914C66.1005 40.6559 66.0792 40.6204 66.0437 40.6062L65.9976 40.592C65.9621 40.5814 65.923 40.5956 65.9053 40.6275L65.7349 41.0178C65.7278 41.039 65.7172 41.0568 65.7101 41.0781L65.6356 41.298C65.5043 41.0603 65.3907 40.8155 65.2878 40.5672L65.5149 40.1415C65.5256 40.1237 65.5327 40.1024 65.5433 40.0812L65.7101 39.6874C65.7207 39.6519 65.7065 39.6129 65.6746 39.5951L65.632 39.5738C65.6001 39.5561 65.5575 39.5667 65.5362 39.5951L65.3055 39.9534C65.2949 39.9712 65.2842 39.9889 65.2736 40.0102L65.1636 40.2195C65.082 39.9747 65.0145 39.7299 64.9613 39.478L65.2062 39.1587C65.2204 39.141 65.231 39.1233 65.2417 39.1055L65.4723 38.7437C65.4901 38.7117 65.483 38.6692 65.451 38.6479L65.412 38.6195C65.3836 38.5982 65.341 38.5982 65.3162 38.623L65.0287 38.9388C65.0145 38.953 65.0003 38.9707 64.9861 38.9885L64.8939 39.1091C64.8548 38.8394 64.83 38.5698 64.8229 38.2966L65.0713 38.066C65.0855 38.0518 65.1033 38.0377 65.1174 38.0199L65.4049 37.7042C65.4262 37.6758 65.4262 37.6332 65.4013 37.6048L65.3694 37.5694C65.3446 37.541 65.302 37.5374 65.2736 37.5587L64.9365 37.8212C64.9187 37.8354 64.901 37.8496 64.8868 37.8638L64.8264 37.917C64.8335 37.7255 64.8477 37.5339 64.8726 37.3423C64.8797 37.282 64.8903 37.2217 64.8974 37.1614L65.1174 37.0195C65.1352 37.0088 65.1529 36.9946 65.1707 36.9804L65.5078 36.7179C65.5362 36.6931 65.5398 36.654 65.522 36.6221L65.4972 36.5831C65.4759 36.5512 65.4368 36.5405 65.4049 36.5547L65.0252 36.7534C65.0074 36.764 64.9862 36.7747 64.9684 36.7853C65.0145 36.5689 65.0749 36.356 65.1423 36.1467L65.3978 36.0403C65.4191 36.0332 65.4368 36.0225 65.4581 36.0119L65.8343 35.8132C65.8662 35.7955 65.8769 35.7529 65.8627 35.721L65.8449 35.6784C65.8307 35.6429 65.7953 35.6252 65.7562 35.6358L65.3481 35.7671C65.3268 35.7742 65.3055 35.7813 65.2878 35.7884L65.2665 35.7955C65.3481 35.5897 65.4404 35.391 65.5397 35.1959L65.7882 35.1356C65.8095 35.1321 65.8307 35.125 65.852 35.1179L66.2566 34.983C66.2921 34.9689 66.3098 34.9334 66.3027 34.8979L66.2921 34.8518C66.285 34.8163 66.2495 34.7915 66.214 34.795L65.7917 34.8553C65.7704 34.8589 65.7491 34.8624 65.7278 34.866H65.7243C65.8308 34.685 65.9514 34.5076 66.0756 34.3374L66.3418 34.3196C66.3631 34.3196 66.3844 34.3161 66.4056 34.3125L66.8279 34.2451C66.8634 34.238 66.8883 34.2025 66.8847 34.1671L66.8812 34.1209C66.8776 34.0855 66.8492 34.0535 66.8138 34.05L66.3879 34.0429C66.3666 34.0429 66.3453 34.0429 66.324 34.0429H66.3063C66.4447 33.8762 66.5866 33.7165 66.7428 33.564L67.1012 33.5959C67.1225 33.5994 67.1438 33.5994 67.1651 33.5994H67.5909C67.6264 33.5959 67.6583 33.5675 67.6619 33.532L67.6654 33.4859C67.669 33.4504 67.6442 33.4149 67.6087 33.4078L67.1864 33.3333C67.1651 33.3298 67.1438 33.3263 67.1225 33.3263L67.0089 33.3156C67.1544 33.1843 67.3106 33.0602 67.4703 32.9396C68.5349 34.3622 68.9927 36.1041 68.7691 37.8638ZM55.2306 36.1325C55.472 34.2593 56.455 32.6593 57.8496 31.5879H57.8532C58.0164 31.783 58.169 31.9888 58.311 32.1981L58.1974 32.1803C58.1761 32.1768 58.1548 32.1732 58.1335 32.1732L57.7077 32.1413C57.6722 32.1413 57.6402 32.1661 57.6331 32.2052L57.626 32.2513C57.619 32.2868 57.6402 32.3222 57.6757 32.3364L58.0909 32.4429C58.1122 32.45 58.1335 32.4535 58.1548 32.4571L58.5097 32.5174C58.6197 32.7054 58.7191 32.897 58.8113 33.0921L58.7936 33.085C58.7723 33.0779 58.751 33.0708 58.7297 33.0673L58.3145 32.9679C58.279 32.9608 58.2435 32.9821 58.2293 33.0176L58.2151 33.0637C58.2045 33.0992 58.2187 33.1382 58.2506 33.156L58.641 33.3263C58.6623 33.3334 58.68 33.344 58.7013 33.3511L58.9533 33.4362C59.0313 33.6349 59.1023 33.8336 59.1591 34.0358H59.1556C59.1378 34.0252 59.1165 34.0181 59.0952 34.0074L58.7013 33.8407C58.6658 33.83 58.6268 33.8442 58.6091 33.8762L58.5878 33.9187C58.57 33.9507 58.5807 33.9932 58.6091 34.0145L58.9675 34.2451C58.9852 34.2558 59.003 34.2664 59.0243 34.2771L59.2514 34.3977C59.3011 34.6105 59.3366 34.8305 59.3649 35.0469L59.3472 35.0327C59.3294 35.0185 59.3117 35.0079 59.294 34.9937L58.932 34.7631C58.9 34.7454 58.8575 34.7524 58.8362 34.7844L58.8078 34.8234C58.7865 34.8518 58.7865 34.8944 58.8113 34.9192L59.1272 35.2066C59.1414 35.2207 59.1591 35.2349 59.1768 35.2491L59.3969 35.4194C59.4111 35.6394 59.4146 35.8593 59.404 36.0828C59.3898 36.0687 59.3756 36.0509 59.3578 36.0367L59.042 35.7494C59.0136 35.7281 58.971 35.7281 58.9426 35.7529L58.9071 35.7848C58.8788 35.8097 58.8752 35.8522 58.8965 35.8806L59.1591 36.2177C59.1733 36.2354 59.1875 36.2496 59.2017 36.2673L59.3791 36.4589C59.372 36.5192 59.3649 36.5795 59.3578 36.6398C59.333 36.8314 59.301 37.023 59.2585 37.211L59.2159 37.1436C59.2052 37.1259 59.191 37.1081 59.1768 37.0904L58.9142 36.7534C58.8894 36.725 58.8468 36.7214 58.8184 36.7392L58.7794 36.764C58.7475 36.7853 58.7368 36.8243 58.751 36.8563L58.9497 37.2359C58.9604 37.2536 58.971 37.2749 58.9817 37.2926L59.1662 37.5764C59.0917 37.839 58.9994 38.098 58.893 38.3463L58.8362 38.2079C58.8291 38.1867 58.8184 38.1689 58.8078 38.1476L58.6091 37.7716C58.5913 37.7396 58.5487 37.729 58.5168 37.7432L58.4742 37.7609C58.4387 37.7751 58.421 37.8142 58.4316 37.8496L58.5629 38.2576C58.57 38.2789 58.5771 38.3002 58.5842 38.3179L58.7404 38.6869C58.6268 38.9175 58.499 39.1375 58.3571 39.3539L58.3038 39.1268C58.3003 39.1055 58.2932 39.0842 58.2861 39.063L58.1513 38.6585C58.1371 38.623 58.1016 38.6053 58.0661 38.6124L58.02 38.623C57.9845 38.6301 57.9596 38.6656 57.9632 38.7011L58.0235 39.1233C58.0271 39.1446 58.0306 39.1658 58.0342 39.1871L58.1442 39.6554C57.9845 39.8718 57.8106 40.0776 57.626 40.2763L57.6083 40.0457C57.6083 40.0244 57.6048 40.0031 57.6012 39.9818L57.5338 39.5596C57.5267 39.5242 57.4912 39.4993 57.4557 39.5029L57.4096 39.5064C57.3741 39.51 57.3421 39.5383 57.3386 39.5738L57.3315 39.9996C57.3315 40.0208 57.3315 40.0421 57.3315 40.0634L57.3634 40.5353C57.1754 40.7126 56.9802 40.8794 56.7708 41.0355L56.7885 40.851C56.7921 40.8297 56.7921 40.8084 56.7921 40.7872V40.3614C56.7885 40.3259 56.7602 40.294 56.7247 40.2905L56.6785 40.2869C56.643 40.2834 56.6076 40.3082 56.6005 40.3437L56.5259 40.7659C56.5224 40.7872 56.5188 40.8084 56.5188 40.8297L56.5011 41.0355C55.4578 39.6164 55.0035 37.8816 55.2306 36.1325ZM61.1322 43.7673C59.4643 43.5544 57.9667 42.7526 56.8702 41.4967C56.895 41.479 56.9198 41.4648 56.9447 41.447C56.9908 41.4116 57.0405 41.3761 57.0866 41.3406L57.3776 41.3654C57.3989 41.369 57.4202 41.369 57.4415 41.369H57.8674C57.9028 41.3654 57.9348 41.3371 57.9383 41.3016L57.9419 41.2555C57.9454 41.22 57.9206 41.1845 57.8851 41.1774L57.4628 41.1029C57.4415 41.0994 57.4202 41.0958 57.3989 41.0958H57.3918C57.6048 40.9149 57.8035 40.7233 57.9916 40.5211L58.2009 40.5069C58.2222 40.5069 58.2435 40.5033 58.2648 40.4998L58.6871 40.4324C58.7226 40.4253 58.7475 40.3898 58.7439 40.3543L58.7404 40.3082C58.7368 40.2727 58.7084 40.2408 58.6729 40.2373L58.2471 40.2302C58.421 40.0208 58.5807 39.8044 58.7297 39.5774L58.9391 39.5277C58.9604 39.5242 58.9817 39.5171 59.003 39.51L59.4075 39.3752C59.443 39.361 59.4608 39.3255 59.4537 39.29L59.443 39.2439C59.4359 39.2084 59.4004 39.1836 59.3649 39.1871L58.9426 39.2474C58.9391 39.2474 58.9355 39.2474 58.9355 39.2474C59.0668 39.0204 59.1839 38.7827 59.2904 38.5414L59.5317 38.4386C59.553 38.4315 59.5708 38.4208 59.592 38.4102L59.9682 38.2115C60.0002 38.1938 60.0108 38.1512 59.9966 38.1193L59.9789 38.0767C59.9647 38.0412 59.9292 38.0235 59.8902 38.0341L59.482 38.1654C59.4643 38.1725 59.4466 38.1796 59.4288 38.1867C59.5104 37.9596 59.5814 37.729 59.6417 37.4913L59.9363 37.3033C59.954 37.2926 59.9718 37.2784 59.9895 37.2642L60.3266 37.0017C60.355 36.9769 60.3586 36.9343 60.3408 36.9059L60.316 36.8669C60.2947 36.835 60.2557 36.8243 60.2237 36.8385L59.844 37.0372C59.8263 37.0478 59.805 37.0585 59.7872 37.0691L59.7269 37.1082C59.7517 36.9733 59.773 36.8385 59.7908 36.7037C59.8014 36.6221 59.8085 36.537 59.8192 36.4554L60.1421 36.1573C60.1563 36.1432 60.174 36.129 60.1882 36.1112L60.4757 35.7955C60.497 35.7671 60.497 35.7245 60.4722 35.6961L60.4402 35.6607C60.4154 35.6323 60.3728 35.6287 60.3444 35.65L60.0073 35.9126C59.9895 35.9267 59.9718 35.9409 59.9576 35.9551L59.8476 36.0545C59.8547 35.8416 59.8511 35.6323 59.8405 35.4194L60.1386 35.0327C60.1528 35.015 60.1634 34.9972 60.174 34.9795L60.4047 34.6176C60.4225 34.5857 60.4154 34.5431 60.3834 34.5218L60.3444 34.4935C60.316 34.4722 60.2734 34.4722 60.2486 34.497L59.9611 34.8128C59.9469 34.8305 59.9327 34.8447 59.9185 34.8624L59.805 35.0114C59.7801 34.8021 59.7446 34.5928 59.7021 34.387L59.9327 33.9542C59.9434 33.9365 59.9505 33.9152 59.9611 33.8939L60.1279 33.5001C60.1386 33.4646 60.1244 33.4256 60.0924 33.4078L60.0498 33.3866C60.0179 33.3688 59.9753 33.3795 59.954 33.4078L59.7233 33.7662C59.7127 33.7839 59.7021 33.8017 59.6914 33.8229L59.6063 33.9826C59.553 33.7981 59.4962 33.6136 59.4288 33.4327L59.5956 32.9396C59.6027 32.9183 59.6098 32.897 59.6133 32.8757L59.7127 32.4606C59.7198 32.4251 59.6985 32.3896 59.663 32.3755L59.6169 32.3613C59.5814 32.3506 59.5424 32.3648 59.5246 32.3968L59.3543 32.787C59.3472 32.8083 59.3365 32.826 59.3294 32.8473L59.2656 33.0353C59.1591 32.7941 59.0385 32.5564 58.9001 32.3258L58.9604 31.9746C58.9639 31.9533 58.9675 31.932 58.9675 31.9107L58.9994 31.485C58.9994 31.4495 58.9746 31.4176 58.9355 31.4105L58.8894 31.4034C58.8539 31.3963 58.8184 31.4176 58.8042 31.4531L58.6978 31.8681C58.6907 31.8894 58.6871 31.9107 58.6836 31.932L58.6765 31.9746C58.5416 31.7723 58.3961 31.5737 58.24 31.3821C58.2329 31.3714 58.2222 31.3644 58.2151 31.3537V31.336C59.5388 30.4526 61.1712 30.0198 62.8711 30.2362C64.3864 30.4313 65.7598 31.1089 66.8208 32.1697C66.9592 32.3081 67.0905 32.4571 67.2183 32.6096C67.0515 32.7373 66.8883 32.8686 66.7321 33.007L66.7357 32.9644C66.7392 32.9431 66.7392 32.9218 66.7392 32.9005V32.4748C66.7357 32.4393 66.7073 32.4074 66.6718 32.4038L66.6257 32.4003C66.5902 32.3967 66.5547 32.4216 66.5476 32.4571L66.4731 32.8792C66.4695 32.9005 66.466 32.9218 66.466 32.9431L66.434 33.2979C66.246 33.4894 66.0685 33.6881 65.9017 33.8939L65.8875 33.6988C65.8875 33.6775 65.884 33.6562 65.8804 33.6349L65.813 33.2127C65.8059 33.1773 65.7704 33.1524 65.7349 33.156L65.6888 33.1595C65.6533 33.1631 65.6214 33.1914 65.6178 33.2269L65.6107 33.6526C65.6107 33.6739 65.6107 33.6952 65.6107 33.7165L65.6462 34.2345C65.5362 34.3941 65.4333 34.5538 65.3339 34.7205L65.2913 34.5467C65.2878 34.5254 65.2807 34.5041 65.2736 34.4828L65.1387 34.0784C65.1245 34.0429 65.0891 34.0252 65.0536 34.0323L65.0074 34.0429C64.972 34.05 64.9471 34.0855 64.9507 34.1209L65.011 34.5431C65.0145 34.5644 65.0181 34.5857 65.0216 34.607L65.1352 35.0824C65.0394 35.2704 64.9542 35.4655 64.8761 35.6607L64.8052 35.4904C64.7981 35.4691 64.7874 35.4514 64.7768 35.4301L64.5781 35.054C64.5603 35.0221 64.5177 35.0114 64.4858 35.0256L64.4432 35.0434C64.4077 35.0576 64.39 35.0966 64.4006 35.1321L64.5319 35.54C64.539 35.5613 64.5461 35.5826 64.5532 35.6004L64.7413 36.0509C64.6774 36.2531 64.6206 36.4554 64.5745 36.6611L64.4929 36.537C64.4822 36.5192 64.468 36.5015 64.4538 36.4837L64.1912 36.1467C64.1664 36.1183 64.1273 36.1148 64.0954 36.1325L64.0564 36.1573C64.0244 36.1786 64.0138 36.2177 64.028 36.2496L64.2267 36.6292C64.2374 36.6469 64.248 36.6682 64.2587 36.686L64.4964 37.0549C64.4822 37.1365 64.4716 37.2181 64.4609 37.3033C64.4432 37.4381 64.429 37.5764 64.4219 37.7113L64.3722 37.658C64.358 37.6439 64.3438 37.6261 64.3261 37.6119L64.0102 37.3246C63.9819 37.3033 63.9393 37.3033 63.9109 37.3281L63.8754 37.36C63.847 37.3849 63.8435 37.4274 63.8648 37.4558L64.1274 37.7929C64.1416 37.8106 64.1557 37.8283 64.1699 37.8425L64.4077 38.1015C64.4042 38.3463 64.4148 38.5876 64.4361 38.8288C64.4219 38.8182 64.4042 38.8075 64.39 38.7969L64.028 38.5663C63.996 38.5485 63.9535 38.5556 63.9322 38.5876L63.9038 38.6266C63.8825 38.655 63.8825 38.6975 63.9073 38.7224L64.2232 39.0097C64.2374 39.0239 64.2551 39.0381 64.2728 39.0523L64.4822 39.212C64.5213 39.4709 64.578 39.7299 64.6455 39.9854C64.6419 39.9854 64.6384 39.9818 64.6384 39.9818L64.2445 39.8151C64.209 39.8044 64.1699 39.8186 64.1522 39.8506L64.1309 39.8931C64.1132 39.9251 64.1238 39.9676 64.1522 39.9889L64.5106 40.2195C64.5284 40.2302 64.5461 40.2408 64.5674 40.2514L64.759 40.3508C64.8442 40.6062 64.9436 40.8581 65.0607 41.1029L64.649 41.0036C64.6135 40.9965 64.578 41.0178 64.5638 41.0532L64.5497 41.0994C64.539 41.1348 64.5532 41.1739 64.5851 41.1916L64.9755 41.3619C64.9968 41.369 65.0145 41.3796 65.0358 41.3867L65.2346 41.4541C65.3659 41.6954 65.5078 41.9331 65.6675 42.1601H65.6604C65.6391 42.1566 65.6178 42.153 65.5965 42.153L65.1707 42.1211C65.1352 42.1211 65.1033 42.1459 65.0962 42.185L65.0891 42.2311C65.082 42.2666 65.1033 42.302 65.1387 42.3162L65.554 42.4227C65.5753 42.4298 65.5965 42.4333 65.6178 42.4369L65.9053 42.4865C65.9266 42.5149 65.9479 42.5433 65.9727 42.5681C64.5603 43.5544 62.8534 43.9872 61.1322 43.7673Z" stroke="url(#paint5_linear_1_56)" stroke-width="0.4" mask="url(#path-4-outside-1_1_56)"/>
<defs>
<radialGradient id="paint0_radial_1_56" cx="0" cy="0" r="1" gradientUnits="userSpaceOnUse" gradientTransform="translate(58 56.7391) rotate(90) scale(56.7391 58)">
<stop stop-color="#FFB520"/>
<stop offset="0.635417"/>
<stop offset="0.940625"/>
<stop offset="0.96875" stop-color="#00A2FD"/>
</radialGradient>
<linearGradient id="paint1_linear_1_56" x1="26.6707" y1="96.1556" x2="19.4595" y2="17.2956" gradientUnits="userSpaceOnUse">
<stop offset="0.0001" stop-color="#FFC123"/>
<stop offset="0.9999" stop-color="#FA4800"/>
</linearGradient>
<linearGradient id="paint2_linear_1_56" x1="26.6707" y1="96.1556" x2="19.4595" y2="17.2956" gradientUnits="userSpaceOnUse">
<stop offset="0.0001" stop-color="#FFC123"/>
<stop offset="0.9999" stop-color="#FA4800"/>
</linearGradient>
<linearGradient id="paint3_linear_1_56" x1="21.1138" y1="28.3329" x2="77.7332" y2="38.6406" gradientUnits="userSpaceOnUse">
<stop offset="0.0001" stop-color="#FFC123"/>
<stop offset="0.9999" stop-color="#FA4800"/>
</linearGradient>
<linearGradient id="paint4_linear_1_56" x1="54.3116" y1="20.7008" x2="79.7169" y2="25.3259" gradientUnits="userSpaceOnUse">
<stop offset="0.0001" stop-color="#FFC123"/>
<stop offset="0.9999" stop-color="#FA4800"/>
</linearGradient>
<linearGradient id="paint5_linear_1_56" x1="54.3116" y1="20.7008" x2="79.7169" y2="25.3259" gradientUnits="userSpaceOnUse">
<stop offset="0.0001" stop-color="#FFC123"/>
<stop offset="0.9999" stop-color="#FA4800"/>
</linearGradient>
</defs>
</svg>
