<svg width="116" height="114" viewBox="0 0 116 114" fill="none" xmlns="http://www.w3.org/2000/svg">
<ellipse cx="58.0001" cy="56.7391" rx="58" ry="56.7391" fill="url(#paint0_radial_1_78)" fill-opacity="0.3"/>
<path d="M58.5001 29C43.3751 29 31.0001 41.375 31.0001 56.5C31.0001 71.625 43.3751 84 58.5001 84C73.6251 84 86.0001 71.625 86.0001 56.5C86.0001 41.375 73.6251 29 58.5001 29ZM58.5001 80.2187C45.4376 80.2187 34.7813 69.5625 34.7813 56.5C34.7813 43.4375 45.4376 32.7812 58.5001 32.7812C71.5626 32.7812 82.2188 43.4375 82.2188 56.5C82.2188 69.5625 71.5626 80.2187 58.5001 80.2187Z" fill="url(#paint1_linear_1_78)"/>
<path d="M56.9931 68.4971C54.8669 68.2686 53.3365 67.5486 52.402 66.3371C51.4674 65.1257 51.0001 63.3314 51.0001 60.9543V60.0286H56.958V60.7143C56.958 62.4514 57.4837 63.32 58.5351 63.32C59.0024 63.32 59.3529 63.1486 59.5865 62.8057C59.8435 62.44 59.9721 61.9943 59.9721 61.4686C59.9721 61.08 59.6216 60.5086 58.9207 59.7543L54.0141 54.8857C52.1917 53.1486 51.2805 51.24 51.2805 49.16C51.2805 47.5371 51.8178 46.1886 52.8926 45.1143C53.9907 44.0171 55.3576 43.32 56.9931 43.0229V41H59.937V42.9886C61.8763 43.2171 63.3482 43.9943 64.3529 45.32C65.3809 46.6457 65.895 48.4057 65.895 50.6H59.7968L59.7618 49.1943C59.7384 48.8971 59.5865 48.6343 59.3062 48.4057C59.0258 48.1543 58.7104 48.0286 58.3599 48.0286C57.9627 48.0286 57.6239 48.1543 57.3436 48.4057C57.0632 48.6343 56.923 48.9429 56.923 49.3314C56.923 49.88 57.4837 50.7029 58.6052 51.8L63.4066 56.4286C64.1777 57.16 64.7968 58.0171 65.2641 59C65.7548 59.9829 66.0001 61.0457 66.0001 62.1886C66.0001 63.9943 65.4393 65.4571 64.3178 66.5771C63.1964 67.6743 61.7361 68.3257 59.937 68.5314V71H56.9931V68.4971Z" fill="url(#paint2_linear_1_78)"/>
<defs>
<radialGradient id="paint0_radial_1_78" cx="0" cy="0" r="1" gradientUnits="userSpaceOnUse" gradientTransform="translate(58.0001 56.7391) rotate(90) scale(56.7391 58)">
<stop stop-color="#FFB520"/>
<stop offset="0.635417"/>
<stop offset="0.940625"/>
<stop offset="0.96875" stop-color="#00A2FD"/>
</radialGradient>
<linearGradient id="paint1_linear_1_78" x1="32.0716" y1="0.471644" x2="119.402" y2="16.3703" gradientUnits="userSpaceOnUse">
<stop offset="0.0001" stop-color="#FFC123"/>
<stop offset="0.9999" stop-color="#FA4800"/>
</linearGradient>
<linearGradient id="paint2_linear_1_78" x1="51.2923" y1="25.4391" x2="75.697" y2="27.6605" gradientUnits="userSpaceOnUse">
<stop offset="0.0001" stop-color="#FFC123"/>
<stop offset="0.9999" stop-color="#FA4800"/>
</linearGradient>
</defs>
</svg>
